<?xml version="1.0" encoding="utf-8"?>
<!-- Generator: Adobe Illustrator 25.4.1, SVG Export Plug-In . SVG Version: 6.00 Build 0)  -->
<svg version="1.1" id="Outlines" xmlns="http://www.w3.org/2000/svg" xmlns:xlink="http://www.w3.org/1999/xlink" x="0px" y="0px"
	 viewBox="0 0 85 54" style="enable-background:new 0 0 85 54;" xml:space="preserve">
<style type="text/css">
	.st0{fill:none;}
	.st1{fill:#FFFFFF;}
</style>
<rect y="0" class="st0" width="85" height="54"/>
<path class="st1" d="M47.6,17.5H31.8v0c0,0.6-0.4,1-1,1c0,0,0,0,0,0h-3.6c-0.6,0-1-0.4-1-1c0,0,0,0,0,0v0H10.4l-1.3,0
	c-0.5,0-0.8,0-1.1,0c-0.2,0-0.4,0-0.5,0c-0.1,0-0.3,0-0.4,0c-0.1,0-0.2,0-0.2,0.1c0,0-0.1,0-0.1,0.1c0,0-0.1,0.1-0.1,0.1
	c0,0.1-0.1,0.2-0.1,0.2c0,0.1,0,0.3,0,0.4c0,0.1,0,0.3,0,0.5c0,0.2,0,0.5,0,1c0,0.7,0,27.5,0,27.5H32v1c0,0.5,0.2,1.1,0.5,1.5H7.3
	L7,50.5H4L3.8,50H1.5C0.7,50,0,49.3,0,48.5v-1h5c0,0,0-26.7,0-27.5c0-0.5,0-0.8,0-1c0-0.2,0-0.4,0-0.5c0-0.2,0-0.4,0-0.6
	c0-0.2,0.1-0.5,0.2-0.7c0.2-0.4,0.5-0.7,0.9-0.9c0.2-0.1,0.4-0.2,0.7-0.2c0.2,0,0.4,0,0.6,0c0.1,0,0.3,0,0.5,0c0.2,0,0.6,0,1.1,0
	c0.3,0,0.8,0,1.3,0h37.2c0.6,0,1,0,1.3,0c0.5,0,0.8,0,1.1,0c0.2,0,0.4,0,0.5,0c0.2,0,0.4,0,0.6,0c0.2,0,0.5,0.1,0.7,0.2
	c0.4,0.2,0.7,0.5,0.9,0.9c0.1,0.2,0.2,0.4,0.2,0.7c0,0.2,0,0.4,0,0.6c0,0.1,0,0.3,0,0.5v0h-1.5v0c0-0.2,0-0.4,0-0.5
	c0-0.1,0-0.3,0-0.4c0-0.1,0-0.2-0.1-0.2c0-0.1-0.1-0.2-0.2-0.2c-0.1,0-0.2-0.1-0.2-0.1c-0.1,0-0.3,0-0.4,0c-0.1,0-0.3,0-0.5,0
	c-0.2,0-0.6,0-1.1,0L47.6,17.5z M85,47.5v1c0,0.8-0.7,1.5-1.5,1.5h-2.2L81,50.5h-3L77.7,50H40.3L40,50.5h-3L36.8,50h-2.2
	c-0.8,0-1.5-0.7-1.5-1.5v-1h5c0,0,0-22.7,0-23.4c0-0.5,0-0.8,0-1.1c0-0.2,0-0.4,0-0.5c0-0.2,0-0.4,0-0.6c0-0.2,0.1-0.5,0.2-0.7
	c0.2-0.4,0.5-0.7,0.9-0.9c0.2-0.1,0.4-0.2,0.7-0.2c0.2,0,0.4,0,0.6,0c0.1,0,0.3,0,0.5,0c0.2,0,0.6,0,1.1,0c0.3,0,1.3,0,1.3,0h31.2
	c0.6,0,1,0,1.3,0c0.5,0,0.8,0,1.1,0c0.2,0,0.4,0,0.5,0c0.2,0,0.4,0,0.6,0c0.2,0,0.5,0.1,0.7,0.2c0.4,0.2,0.7,0.5,0.9,0.9
	c0.1,0.2,0.2,0.4,0.2,0.7c0,0.2,0,0.4,0,0.6c0,0.1,0,0.3,0,0.5c0,0.2,0,0.6,0,1.1c0,0.7,0,23.4,0,23.4L85,47.5z M78.5,47.5
	c0,0,0-22.7,0-23.4c0-0.5,0-0.8,0-1.1c0-0.2,0-0.4,0-0.5c0-0.1,0-0.3,0-0.4c0-0.1,0-0.2-0.1-0.2c0,0,0-0.1-0.1-0.1
	c0,0-0.1-0.1-0.1-0.1c-0.1,0-0.2-0.1-0.2-0.1c-0.1,0-0.3,0-0.4,0c-0.1,0-0.3,0-0.5,0c-0.2,0-0.6,0-1.1,0l-1.3,0H61.8v0
	c0,0.6-0.4,1-1,1l0,0h-3.6c-0.6,0-1-0.4-1-1l0,0v0h-3.7h-9.1l-1.3,0c-0.5,0-0.8,0-1.1,0c-0.2,0-0.4,0-0.5,0c-0.1,0-0.3,0-0.4,0
	c-0.1,0-0.2,0-0.2,0.1c0,0-0.1,0-0.1,0.1c0,0-0.1,0.1-0.1,0.1c0,0.1-0.1,0.2-0.1,0.2c0,0.1,0,0.3,0,0.4c0,0.1,0,0.3,0,0.5
	c0,0.2,0,0.6,0,1.1c0,0.7,0,23.4,0,23.4L78.5,47.5z"/>
</svg>
