<?xml version="1.0" encoding="utf-8"?>
<!-- Generator: Adobe Illustrator 25.4.1, SVG Export Plug-In . SVG Version: 6.00 Build 0)  -->
<svg version="1.1" id="Outlines" xmlns="http://www.w3.org/2000/svg" xmlns:xlink="http://www.w3.org/1999/xlink" x="0px" y="0px"
	 viewBox="0 0 80 54" style="enable-background:new 0 0 80 54;" xml:space="preserve">
<style type="text/css">
	.st0{fill:none;}
	.st1{fill:#FFFFFF;}
</style>
<rect y="0" class="st0" width="80" height="54"/>
<path class="st1" d="M20.9,43.5h6.2l0.8,3.6c0.3,1.4,1.5,2.3,2.9,2.2c0,0,0,0,0.1,0c0.2,0,0.3,0.2,0.3,0.3c0,0,0,0,0,0
	c0,0.1-0.1,0.3-0.2,0.3c0,0,0,0,0,0v0H17.1v0c0,0,0,0,0,0c-0.2-0.1-0.3-0.2-0.2-0.4c0-0.1,0.2-0.2,0.3-0.2c0,0,0,0,0.1,0
	c1.4,0.1,2.6-0.8,2.9-2.2L20.9,43.5z M36,41.5c0,0.5,0.2,1.1,0.5,1.5H1.6c-0.8-0.1-1.5-0.7-1.6-1.5V11.5c0.1-0.8,0.7-1.4,1.5-1.5
	h44.9c0.8,0.1,1.4,0.7,1.5,1.5V13h-2v-1H2v25h34V41.5z M24,39.3L24,39.3C24,39.4,24,39.4,24,39.3c0.1,0.1,0.2,0,0.2,0
	c0.1,0,0.1-0.1,0.2-0.1c0-0.1,0.1-0.1,0.1-0.2c0-0.1,0-0.1,0-0.2v0c0,0,0,0,0,0c-0.1,0-0.1,0-0.2,0.1c-0.1,0-0.1,0.1-0.2,0.1
	c0,0.1-0.1,0.1-0.1,0.2C24,39.2,24,39.2,24,39.3z M25,40.6c-0.1,0-0.2-0.1-0.2-0.2c-0.1-0.1-0.1-0.2-0.1-0.3c0-0.1,0-0.2,0.1-0.3
	c0-0.1,0.1-0.2,0.2-0.2c-0.1-0.1-0.1-0.1-0.2-0.2c-0.1,0-0.2-0.1-0.3-0.1c0,0-0.1,0-0.1,0c0,0-0.1,0-0.1,0c-0.1,0-0.1,0-0.1,0
	c0,0,0,0-0.1,0c-0.1,0-0.1,0-0.2-0.1c-0.1,0-0.2-0.1-0.2-0.1c-0.1,0-0.2,0-0.2,0.1c-0.1,0-0.1,0.1-0.2,0.2c-0.1,0.1-0.1,0.2-0.1,0.2
	c0,0.1,0,0.2,0,0.3c0,0.1,0,0.1,0,0.2c0,0.1,0,0.1,0.1,0.2c0,0.1,0.1,0.1,0.1,0.2c0,0.1,0.1,0.1,0.1,0.2c0,0.1,0.1,0.1,0.1,0.2
	c0,0,0.1,0.1,0.1,0.1c0,0,0.1,0,0.1,0.1c0,0,0.1,0,0.1,0c0,0,0.1,0,0.1,0c0,0,0.1,0,0.1,0s0.1,0,0.1,0c0,0,0.1,0,0.1,0
	c0,0,0.1,0,0.1,0c0,0,0.1,0,0.1,0s0.1,0,0.1,0c0,0,0.1,0,0.1,0c0,0,0.1,0,0.1,0c0,0,0.1,0,0.1-0.1c0,0,0,0,0.1-0.1
	c0,0,0.1-0.1,0.1-0.1c0,0,0.1-0.1,0.1-0.2C25,40.8,25,40.7,25,40.6z M80,15.5v26c0,0.8-0.7,1.5-1.5,1.5h-40c-0.8,0-1.5-0.7-1.5-1.5
	v-26c0-0.8,0.7-1.5,1.5-1.5h40C79.3,14,80,14.7,80,15.5z M79,15H38v23h41V15z M53,50h11v-6.5H53V50z"/>
</svg>
