<?xml version="1.0" encoding="utf-8"?>
<!-- Generator: Adobe Illustrator 26.0.1, SVG Export Plug-In . SVG Version: 6.00 Build 0)  -->
<svg version="1.1" id="Layer_1" xmlns="http://www.w3.org/2000/svg" xmlns:xlink="http://www.w3.org/1999/xlink" x="0px" y="0px"
	 viewBox="0 0 467 717" style="enable-background:new 0 0 467 717;" xml:space="preserve">
<style type="text/css">
	.st0{fill:#FFFFFF;}
</style>
<g id="LOlFRH.tif">
	<g>
		<path class="st0" d="M233.42,672.47c-4.21-0.36-8.43-0.76-12.64-1.08c-17.95-1.38-35.26-5-50.4-15.43
			c-17.31-11.91-29.07-27.62-32.38-48.84c-0.55-3.56-0.89-7.18-0.91-10.78c-0.09-17.17-0.05-34.34-0.03-51.5
			c0.02-10.19,0.11-20.38,0.13-30.57c0-1.8-0.28-3.6-0.28-5.4c-0.02-52.82-0.07-105.64,0.01-158.46
			c0.03-20.24,8.02-36.95,23.02-50.5c15.37-13.89,33.65-20.89,54-22.27c13.6-0.92,27.33-1.34,40.94-0.68
			c24.28,1.18,46.3,8.67,63.66,26.7c11.13,11.55,18.05,25.12,18.47,41.39c0.45,17.41,0.67,34.84,0.65,52.26
			c-0.04,37.05-0.42,74.1-0.44,111.15c-0.01,28.79,0.37,57.57,0.46,86.36c0.06,21.16-7.8,38.78-23.5,53.12
			c-15.33,14.01-33.55,20.73-53.86,22.71c-6.38,0.62-12.77,1.21-19.15,1.81C238.58,672.47,236,672.47,233.42,672.47z M320.45,472.89
			c0-38.54,0-77.08-0.01-115.62c0-1.99-0.05-4.02-0.35-5.98c-1.96-12.97-7.51-23.66-16.28-33.01
			c-13.33-14.21-29.54-20.92-47.67-22.34c-12.08-0.95-24.3-0.81-36.4-0.06c-16.23,1.01-31.26,6.1-44.09,17.66
			c-14.09,12.69-21.75,28.08-21.66,48.35c0.3,75.08,0.12,150.16,0.15,225.23c0,10.11,2.35,19.66,7.32,28.2
			c10.42,17.91,25.19,29.41,44.52,33.94c16.01,3.75,32.16,3.45,48.34,2.13c19.55-1.59,36.68-8.59,50.49-24.4
			c10.22-11.69,15.64-24.98,15.64-40.95C320.44,548.32,320.45,510.6,320.45,472.89z"/>
		<path class="st0" d="M257.51,587.57c-2.7,3.59-5.08,7.56-8.3,10.66c-1.33,1.29-4.68,1.51-6.68,0.87
			c-3.03-0.96-5.67-1.26-8.55,0.07c-3.37,1.56-6.41,0.7-8.74-1.95c-5.69-6.49-8.75-13.91-7.02-22.7c1.44-7.31,8.22-11.17,15.43-9.46
			c2.72,0.65,5.86,0.59,8.58-0.07c5.72-1.39,9.52-0.33,13.07,4.54C248.9,577.89,249.15,581.21,257.51,587.57z M246.4,574.13
			c-1.59-1.67-3.32-2.39-5.45-1.62c-2.24,0.81-4.39,0.84-6.75,0.18c-3.94-1.11-7.52,1.72-7.88,5.84c-0.37,4.21,0.93,7.87,3.43,11.19
			c1.37,1.83,2.94,2.26,5.24,1.67c1.73-0.45,3.74-0.28,5.52,0.11c2.5,0.55,7.11-2.98,6.82-5.56c-0.04-0.35-0.34-0.7-0.59-0.99
			C243.21,580.81,243.12,578.96,246.4,574.13z"/>
		<path class="st0" d="M247.15,547.98c0.9,6.46-2.76,12.88-8,14.48c-3.59,1.1-5.05-0.23-4.3-3.94
			C236.07,552.53,240.29,548.83,247.15,547.98z M239.62,556.71c1.95-0.14,2.73-1.03,2.82-3.27
			C240.77,553.99,239.82,554.96,239.62,556.71z"/>
	</g>
</g>
</svg>
