<?xml version="1.0" encoding="utf-8"?>
<!-- Generator: Adobe Illustrator 26.0.3, SVG Export Plug-In . SVG Version: 6.00 Build 0)  -->
<svg version="1.1" id="Layer_1" xmlns="http://www.w3.org/2000/svg" xmlns:xlink="http://www.w3.org/1999/xlink" x="0px" y="0px"
	 viewBox="0 0 72 54" style="enable-background:new 0 0 72 54;" xml:space="preserve">
<style type="text/css">
	.st0{fill:none;}
	.st1{fill:#FFFFFF;}
</style>
<path class="st0" d="M0,0h72v54H0V0z"/>
<path class="st1" d="M48,50v-7.5h2.9c0.3,0.6,1,0.9,1.6,0.6c0.3-0.1,0.5-0.4,0.6-0.6H56V50L48,50z M72,20.5v20
	c0,0.8-0.7,1.5-1.5,1.5h-37c-0.8,0-1.5-0.7-1.5-1.5v-20c0-0.8,0.7-1.5,1.5-1.5h37C71.3,19,72,19.7,72,20.5z M70,21H34v19h36V21z
	 M31,40.2c0,0.3,0,0.6,0.1,0.8H1.5c0,0-0.1,0-0.2,0c-0.9-0.1-1.5-1-1.4-1.8c0,0,0,0,0,0V15.7c-0.1-0.8,0.5-1.6,1.3-1.7
	c0.1,0,0.2,0,0.2,0h43c1,0,1.4,0.8,1.4,1.7V18h-2v-2H2v23h29V40.2z M17,50h12v-8.5H17V50z"/>
</svg>
