<?xml version="1.0" encoding="utf-8"?>
<!-- Generator: Adobe Illustrator 19.2.1, SVG Export Plug-In . SVG Version: 6.00 Build 0)  -->
<svg version="1.1" id="Layer_1" xmlns="http://www.w3.org/2000/svg" xmlns:xlink="http://www.w3.org/1999/xlink" x="0px" y="0px"
	 viewBox="0 0 35 54" style="enable-background:new 0 0 35 54;" xml:space="preserve">
<style type="text/css">
	.st0{fill:#FFFFFF;}
</style>
<g id="UI_Text">
</g>
<g id="Dark">
</g>
<g id="Light">
	<g id="Mac_Pro_3_">
		<path class="st0" d="M33.3,49.6v-0.2v-1.9h1.6V14.1h-1.7l0,0v-3.8c0-0.4-0.3-0.8-0.7-0.8s-0.7,0.3-0.7,0.8v3.8l0,0H3.5l0,0v-3.8
			c0-0.4-0.3-0.8-0.7-0.8S2,9.9,2,10.3v3.8l0,0H0v33.4h1.7v1.8v0.1v0.2c0,0,0,0,0,0c0,0,0,0,0,0.1c0,0,0,0,0,0.1c0,0,0,0,0,0.1
			s0,0-0.1,0c0,0,0,0-0.1,0c0,0,0,0-0.1,0h-1l0,0H0.2v1h4.2v-1H4.2h-1c0,0,0,0-0.1,0s0,0-0.1,0c0,0,0,0-0.1,0s0,0,0-0.1
			c0,0,0,0,0-0.1c0,0,0,0,0-0.1c0,0,0,0,0,0l0,0v-0.2v-1.9h29.2v1.8v0.1v0.2c0,0,0,0,0,0c0,0,0,0,0,0.1c0,0,0,0,0,0.1c0,0,0,0,0,0.1
			s0,0-0.1,0c0,0,0,0-0.1,0c0,0,0,0-0.1,0h-1l0,0h-0.2v1h4.2v-1h-0.2h-1c0,0,0,0-0.1,0c0,0,0,0-0.1,0c0,0,0,0-0.1,0s0,0,0-0.1
			c0,0,0,0,0-0.1C33.3,49.7,33.3,49.7,33.3,49.6C33.3,49.7,33.3,49.7,33.3,49.6L33.3,49.6z M18,25.9c0.3-0.4,0.9-0.7,1.3-0.7
			c0,0.5-0.2,1.1-0.5,1.5c-0.3,0.4-0.8,0.7-1.3,0.6C17.4,26.8,17.7,26.3,18,25.9z M20.6,33.2c-0.4,0.6-0.8,1.1-1.4,1.1
			c-0.6,0-0.8-0.4-1.5-0.4c-0.7,0-0.9,0.3-1.5,0.4c-0.6,0-1.1-0.6-1.4-1.2c-0.8-1.1-1.4-3.2-0.6-4.6c0.4-0.7,1.1-1.1,1.9-1.1
			c0.6,0,1.1,0.4,1.5,0.4s1-0.5,1.7-0.4c0.3,0,1.1,0.1,1.6,0.9c0,0-1,0.6-1,1.8c0,1.4,1.2,1.9,1.2,1.9C21.2,32,21,32.6,20.6,33.2z"
			/>
	</g>
</g>
</svg>
