<?xml version="1.0" encoding="utf-8"?>
<!-- Generator: Adobe Illustrator 26.0.3, SVG Export Plug-In . SVG Version: 6.00 Build 0)  -->
<svg version="1.1" id="Layer_1" xmlns="http://www.w3.org/2000/svg" xmlns:xlink="http://www.w3.org/1999/xlink" x="0px" y="0px"
	 viewBox="0 0 28 54" style="enable-background:new 0 0 28 54;" xml:space="preserve">
<style type="text/css">
	.st0{fill:none;}
	.st1{fill:#FFFFFF;}
</style>
<path class="st0" d="M0,0h28v54H0V0z"/>
<path class="st1" d="M0,35v13.1c0,0.8,0.4,1.3,1,1.3h1.9L3.7,50h20.6l0.8-0.6H27c0.6,0,1-0.5,1-1.3V35H0z M23.4,47.8
	c-0.7,0-1.2-0.6-1.1-1.2s0.6-1.2,1.2-1.1c0.6,0,1.1,0.5,1.1,1.2C24.6,47.3,24.1,47.8,23.4,47.8 M23.4,47.8
	C23.4,47.8,23.4,47.8,23.4,47.8"/>
</svg>
